<svg width="281" height="249" viewBox="0 0 281 249" fill="none" xmlns="http://www.w3.org/2000/svg">
<path d="M29.6056 44.6029C61.9517 11.1061 102.758 -1.24629 148.232 0.0989555C183.717 1.1676 215.918 12.3552 242.799 35.7952C272.78 61.9292 287.029 94.8551 278.608 135.14C273.383 160.146 259.306 180.212 239.36 195.56L238.342 196.338C196.453 228.123 149.867 236.239 99.6798 223.498C95.7278 223.192 92.3883 222.983 89.8272 222.979C89.2143 223.408 88.6262 223.952 88.0001 224.571C71.9028 240.548 48.9904 245.183 26.753 248.589L26.1768 248.668C23.2941 249.034 20.3319 248.932 17.4151 249H17.3907C15.8113 249.01 15.0784 247.025 16.2481 245.96C29.0963 234.261 39.4086 223.36 42.9503 207.141C44.5058 200.024 43.4556 196.248 37.2677 191.133C15.1301 172.863 2.24355 149.09 0.240326 120.176C-1.82464 90.5114 9.54013 65.38 29.6056 44.6029Z" fill="white"/>
<path d="M32.4834 47.3809C63.8772 14.8705 103.495 2.77612 148.111 4.0957V4.09668C182.242 5.1246 213.089 15.709 238.942 37.751L240.17 38.8096C269.243 64.1516 282.771 95.6746 274.691 134.321V134.322C269.69 158.261 256.224 177.535 236.921 192.389C194.562 224.978 147.378 232.66 96.1543 218.424L96.1484 218.423L95.7109 218.309C93.5309 217.776 91.4834 217.817 89.5283 218.606C87.6278 219.373 86.2166 220.709 85.1885 221.725L85.1816 221.731C70.5888 236.215 49.8238 240.921 28.2383 244.311L26.1582 244.633C25.2 244.777 24.2508 244.852 23.2734 244.896C34.2881 234.447 43.4622 223.543 46.8574 207.995C47.6935 204.17 47.9888 200.592 46.7998 197.098C45.6115 193.605 43.1501 190.806 39.8154 188.05L39.8135 188.048L38.8203 187.219C18.0946 169.726 6.12378 147.229 4.23047 119.899V119.898L4.14746 118.573C2.5974 90.8093 13.3605 67.1828 32.4834 47.3818V47.3809Z" stroke="#C6BCD0" stroke-width="8"/>
</svg>
