<svg width="28" height="21" viewBox="0 0 28 21" fill="none" xmlns="http://www.w3.org/2000/svg">
<path d="M10.4561 0.75C10.6463 0.748339 10.8357 0.785045 11.0117 0.857422C11.1877 0.929796 11.3471 1.03692 11.4814 1.17188C11.6158 1.30686 11.7221 1.46704 11.7939 1.64355C11.8658 1.82013 11.902 2.00949 11.9004 2.2002C11.8987 2.39082 11.8591 2.57965 11.7842 2.75488C11.7098 2.92867 11.601 3.08487 11.4658 3.2168L11.4668 3.21777L5.63672 9.07715H25.8184C26.1984 9.0772 26.5627 9.22935 26.8311 9.49902C27.0993 9.76868 27.25 10.1339 27.25 10.5146C27.25 10.8954 27.0993 11.2606 26.8311 11.5303C26.5627 11.7999 26.1984 11.9521 25.8184 11.9521H5.63672L11.4668 17.8115L11.4697 17.8145C11.7304 18.0856 11.8753 18.4487 11.8721 18.8252C11.8688 19.2015 11.7182 19.5616 11.4531 19.8281C11.1877 20.0948 10.8279 20.2467 10.4521 20.25C10.0764 20.2532 9.71426 20.1077 9.44434 19.8457L9.44141 19.8428L1.16895 11.5303C0.900684 11.2606 0.750015 10.8954 0.75 10.5146C0.75 10.1339 0.900706 9.76868 1.16895 9.49902L9.44141 1.18652C9.57283 1.05054 9.72982 0.942102 9.90332 0.867188C10.078 0.791803 10.2659 0.751714 10.4561 0.75Z" fill="#B3B3B3" stroke="#B3B3B3" stroke-width="0.5"/>
</svg>
