<svg width="25" height="25" viewBox="0 0 25 25" fill="none" xmlns="http://www.w3.org/2000/svg">
<path d="M12.5039 2.97687e-07C10.3456 -0.000470627 8.22397 0.557798 6.34547 1.62047C4.46696 2.68314 2.89561 4.214 1.78436 6.06406C0.673102 7.91412 0.0598033 10.0203 0.00415658 12.1777C-0.0514902 14.3351 0.452411 16.4701 1.46681 18.375L0.102498 22.4675C-0.0105122 22.8064 -0.0269127 23.17 0.0551349 23.5176C0.137182 23.8653 0.314436 24.1832 0.567027 24.4358C0.819619 24.6883 1.13757 24.8656 1.48524 24.9476C1.8329 25.0296 2.19655 25.0132 2.53542 24.9002L6.62837 23.5361C8.30493 24.4277 10.1626 24.9257 12.0604 24.9923C13.9582 25.0589 15.8462 24.6923 17.5812 23.9203C19.3161 23.1484 20.8524 21.9914 22.0734 20.5371C23.2943 19.0829 24.1679 17.3696 24.6278 15.5273C25.0877 13.6851 25.1219 11.7623 24.7276 9.90485C24.3334 8.04744 23.5211 6.30425 22.3525 4.80759C21.1839 3.31093 19.6897 2.10014 17.9832 1.26713C16.2767 0.434121 14.4029 0.000779123 12.5039 2.97687e-07ZM7.21496 13.9423C6.92967 13.9423 6.65079 13.8577 6.41358 13.6992C6.17637 13.5408 5.99149 13.3155 5.88231 13.0519C5.77314 12.7884 5.74457 12.4984 5.80023 12.2186C5.85589 11.9388 5.99327 11.6818 6.195 11.4801C6.39673 11.2784 6.65374 11.1411 6.93355 11.0854C7.21336 11.0298 7.50339 11.0583 7.76696 11.1675C8.03053 11.2766 8.25581 11.4615 8.41431 11.6987C8.57281 11.9359 8.6574 12.2147 8.6574 12.5C8.6574 12.8825 8.50543 13.2494 8.23492 13.5199C7.96441 13.7903 7.59752 13.9423 7.21496 13.9423ZM12.5039 13.9423C12.2186 13.9423 11.9398 13.8577 11.7025 13.6992C11.4653 13.5408 11.2805 13.3155 11.1713 13.0519C11.0621 12.7884 11.0335 12.4984 11.0892 12.2186C11.1449 11.9388 11.2822 11.6818 11.484 11.4801C11.6857 11.2784 11.9427 11.1411 12.2225 11.0854C12.5023 11.0298 12.7924 11.0583 13.0559 11.1675C13.3195 11.2766 13.5448 11.4615 13.7033 11.6987C13.8618 11.9359 13.9464 12.2147 13.9464 12.5C13.9464 12.8825 13.7944 13.2494 13.5239 13.5199C13.2534 13.7903 12.8865 13.9423 12.5039 13.9423ZM17.7929 13.9423C17.5076 13.9423 17.2287 13.8577 16.9915 13.6992C16.7543 13.5408 16.5694 13.3155 16.4603 13.0519C16.3511 12.7884 16.3225 12.4984 16.3782 12.2186C16.4338 11.9388 16.5712 11.6818 16.7729 11.4801C16.9747 11.2784 17.2317 11.1411 17.5115 11.0854C17.7913 11.0298 18.0813 11.0583 18.3449 11.1675C18.6085 11.2766 18.8337 11.4615 18.9922 11.6987C19.1507 11.9359 19.2353 12.2147 19.2353 12.5C19.2353 12.8825 19.0834 13.2494 18.8129 13.5199C18.5424 13.7903 18.1755 13.9423 17.7929 13.9423Z" fill="white"/>
</svg>
