<svg width="21" height="21" viewBox="0 0 21 21" fill="none" xmlns="http://www.w3.org/2000/svg">
<path d="M20.9878 15.8633C20.8005 17.2861 20.1018 18.5921 19.022 19.5374C17.9423 20.4827 16.5553 21.0026 15.1203 21C6.78313 21 9.50124e-06 14.2169 9.50124e-06 5.87984C-0.00256302 4.44479 0.51734 3.05786 1.46261 1.97811C2.40789 0.898353 3.71389 0.199612 5.1367 0.0123876C5.49649 -0.0315438 5.86084 0.0420629 6.17536 0.22222C6.48988 0.402377 6.7377 0.679422 6.88183 1.012L9.09947 5.9628V5.9754C9.20981 6.22997 9.25538 6.50792 9.23211 6.7844C9.20884 7.06089 9.11745 7.32731 8.96611 7.55986C8.94721 7.58821 8.92726 7.61446 8.90626 7.64071L6.72012 10.2321C7.50659 11.8303 9.17822 13.4872 10.7973 14.2757L13.3531 12.1012C13.3782 12.0801 13.4045 12.0604 13.4318 12.0424C13.6642 11.8874 13.9315 11.7928 14.2097 11.7671C14.4878 11.7414 14.7679 11.7855 15.0247 11.8954L15.0384 11.9017L19.985 14.1182C20.3182 14.2618 20.5959 14.5094 20.7766 14.824C20.9574 15.1386 21.0315 15.5032 20.9878 15.8633Z" fill="#572C5D"/>
</svg>
