<svg width="23" height="23" viewBox="0 0 23 23" fill="none" xmlns="http://www.w3.org/2000/svg">
<path d="M19.5 1.22168C20.1294 0.59235 21.1478 0.592566 21.7773 1.22168C22.4072 1.85123 22.4072 2.87045 21.7773 3.5L13.7764 11.5L21.7773 19.501C22.4072 20.1305 22.4072 21.1488 21.7773 21.7783C21.4634 22.0922 21.0506 22.25 20.6387 22.25C20.2268 22.2499 19.8139 22.0922 19.5 21.7783L11.5 13.7773L3.5 21.7783C3.18609 22.0922 2.77324 22.2499 2.36133 22.25C1.94952 22.25 1.53644 22.0922 1.22266 21.7783C0.592828 21.1488 0.592829 20.1305 1.22266 19.501L9.22266 11.5L1.22266 3.5C0.592829 2.87045 0.592829 1.85123 1.22266 1.22168C1.85223 0.59253 2.87039 0.592386 3.5 1.22168L11.5 9.22168L19.5 1.22168Z" fill="#B3B3B3" stroke="#B3B3B3" stroke-width="0.5"/>
</svg>
